<svg xmlns="http://www.w3.org/2000/svg" viewBox="0 0 1000 1200" role="img" aria-labelledby="title desc">
  <title id="title">Placeholder visual de veterinaria</title>
  <desc id="desc">Ilustración propia de una veterinaria con símbolos de nutrición y cuidado.</desc>
  <defs>
    <linearGradient id="aboutBg" x1="0" x2="1" y1="0" y2="1">
      <stop offset="0" stop-color="#FFF9F6"/>
      <stop offset="1" stop-color="#FFF1F5"/>
    </linearGradient>
    <linearGradient id="coat" x1="0" x2="1" y1="0" y2="1">
      <stop offset="0" stop-color="#FFFFFF"/>
      <stop offset="1" stop-color="#FFF1F5"/>
    </linearGradient>
    <filter id="aboutShadow" color-interpolation-filters="sRGB" x="-20%" y="-20%" width="140%" height="140%">
      <feDropShadow dx="0" dy="24" stdDeviation="28" flood-color="#3B2724" flood-opacity=".12"/>
    </filter>
  </defs>
  <rect width="1000" height="1200" rx="72" fill="url(#aboutBg)"/>
  <path d="M124 946c110-104 205-20 318-94 117-76 110-238 244-256 88-12 146 42 206-18" fill="none" stroke="#F7B9C9" stroke-width="8" stroke-linecap="round"/>
  <g filter="url(#aboutShadow)">
    <circle cx="500" cy="322" r="142" fill="#FFF1F5" stroke="#F7B9C9" stroke-width="10"/>
    <path d="M390 324c42-112 178-112 220 0" fill="none" stroke="#3B2724" stroke-width="16" stroke-linecap="round"/>
    <circle cx="454" cy="326" r="10" fill="#3B2724"/>
    <circle cx="546" cy="326" r="10" fill="#3B2724"/>
    <path d="M474 378c20 16 48 16 68 0" fill="none" stroke="#E83E73" stroke-width="12" stroke-linecap="round"/>
    <path d="M346 472c82 58 226 58 308 0 82 68 130 184 142 352H204c12-168 60-284 142-352z" fill="url(#coat)" stroke="#F7B9C9" stroke-width="10" stroke-linejoin="round"/>
    <path d="M420 504l80 118 80-118" fill="none" stroke="#E83E73" stroke-width="12" stroke-linecap="round" stroke-linejoin="round"/>
    <path d="M392 706c0-62 216-62 216 0 0 58-216 58-216 0z" fill="#FFF1F5" stroke="#BE185D" stroke-width="10"/>
    <path d="M432 704h136M500 636v136" stroke="#E83E73" stroke-width="10" stroke-linecap="round"/>
  </g>
  <g>
    <circle cx="232" cy="236" r="54" fill="#E83E73"/>
    <path d="M212 236h40M232 216v40" stroke="#FFFFFF" stroke-width="12" stroke-linecap="round"/>
    <path d="M764 264c-26-44-2-92 44-108 30 44 6 98-44 108z" fill="#FFFFFF" stroke="#BE185D" stroke-width="10" stroke-linejoin="round"/>
    <path d="M782 240c18-12 32-30 42-56" stroke="#E83E73" stroke-width="8" stroke-linecap="round"/>
  </g>
</svg>
