<svg xmlns="http://www.w3.org/2000/svg" viewBox="0 0 1200 820" role="img" aria-labelledby="title desc">
  <title id="title">Placeholder visual de alimentación para perro y gato</title>
  <desc id="desc">Ilustración propia de un cuenco, ingredientes y un plan de alimentación.</desc>
  <defs>
    <linearGradient id="foodBg" x1="0" x2="1" y1="0" y2="1">
      <stop offset="0" stop-color="#FFFFFF"/>
      <stop offset="1" stop-color="#FFF1F5"/>
    </linearGradient>
    <filter id="foodShadow" color-interpolation-filters="sRGB" x="-20%" y="-20%" width="140%" height="140%">
      <feDropShadow dx="0" dy="20" stdDeviation="24" flood-color="#3B2724" flood-opacity=".1"/>
    </filter>
  </defs>
  <rect width="1200" height="820" rx="64" fill="url(#foodBg)"/>
  <path d="M152 640c132-82 239 2 366-58 125-59 164-207 302-202 98 4 148 80 232 37" fill="none" stroke="#F7B9C9" stroke-width="8" stroke-linecap="round"/>
  <g filter="url(#foodShadow)">
    <rect x="142" y="134" width="350" height="424" rx="48" fill="#FFFFFF"/>
    <path d="M218 392h196l-30 104H248z" fill="#FFF1F5" stroke="#E83E73" stroke-width="10" stroke-linejoin="round"/>
    <ellipse cx="316" cy="392" rx="112" ry="38" fill="#FFFFFF" stroke="#BE185D" stroke-width="10"/>
    <circle cx="278" cy="378" r="18" fill="#E83E73"/>
    <circle cx="326" cy="370" r="18" fill="#F7B9C9"/>
    <circle cx="364" cy="384" r="18" fill="#E83E73"/>
    <path d="M258 242c28-56 92-56 120 0" fill="none" stroke="#3B2724" stroke-width="12" stroke-linecap="round"/>
    <circle cx="278" cy="258" r="8" fill="#3B2724"/>
    <circle cx="360" cy="258" r="8" fill="#3B2724"/>
    <path d="M298 296c16 12 32 12 48 0" fill="none" stroke="#E83E73" stroke-width="10" stroke-linecap="round"/>
  </g>
  <g filter="url(#foodShadow)">
    <rect x="558" y="174" width="490" height="470" rx="48" fill="#FFFFFF"/>
    <rect x="626" y="246" width="260" height="34" rx="17" fill="#F7B9C9"/>
    <rect x="626" y="326" width="332" height="34" rx="17" fill="#FFF1F5"/>
    <rect x="626" y="406" width="294" height="34" rx="17" fill="#F7B9C9"/>
    <rect x="626" y="486" width="224" height="34" rx="17" fill="#FFF1F5"/>
    <circle cx="948" cy="262" r="42" fill="#E83E73"/>
    <path d="M932 262h32M948 246v32" stroke="#FFFFFF" stroke-width="10" stroke-linecap="round"/>
  </g>
  <g>
    <path d="M508 208c-22-38-2-78 38-92 26 38 6 82-38 92z" fill="#FFF1F5" stroke="#BE185D" stroke-width="10" stroke-linejoin="round"/>
    <path d="M520 188c18-10 30-24 38-44" fill="none" stroke="#E83E73" stroke-width="8" stroke-linecap="round"/>
    <path d="M1000 620c-18-36 4-74 42-86 24 36 4 78-42 86z" fill="#FFF1F5" stroke="#BE185D" stroke-width="10" stroke-linejoin="round"/>
  </g>
</svg>
