<svg width="900" height="1125" viewBox="0 0 900 1125" fill="none" xmlns="http://www.w3.org/2000/svg" role="img" aria-labelledby="title desc">
  <title id="title">Placeholder visual de Kathia</title>
  <desc id="desc">Retrato ilustrado temporal para revisar el diseño de la sección Sobre Kathia.</desc>
  <rect width="900" height="1125" rx="72" fill="#FFF1F5"/>
  <circle cx="675" cy="135" r="230" fill="#FFF9F6" opacity="0.9"/>
  <circle cx="160" cy="300" r="150" fill="#FF8FB1" opacity="0.16"/>
  <path d="M248 842c24-154 111-252 218-252 112 0 196 99 218 252 11 75-49 143-125 143H373c-76 0-136-68-125-143Z" fill="#3B2724" opacity="0.94"/>
  <circle cx="455" cy="407" r="172" fill="#F4C6B8"/>
  <path d="M286 420c16-132 85-219 189-219 97 0 161 73 169 185-66-17-145-54-206-126-29 66-80 121-152 160Z" fill="#3B2724"/>
  <path d="M326 476c28 94 85 144 137 144 54 0 109-52 135-144" stroke="#3B2724" stroke-width="16" stroke-linecap="round" opacity="0.42"/>
  <circle cx="389" cy="437" r="14" fill="#3B2724"/>
  <circle cx="524" cy="437" r="14" fill="#3B2724"/>
  <path d="M422 521c24 20 55 20 79 0" stroke="#3B2724" stroke-width="14" stroke-linecap="round"/>
  <rect x="320" y="708" width="280" height="108" rx="54" fill="#FFFFFF" opacity="0.94"/>
  <path d="M402 762h116" stroke="#E83E73" stroke-width="18" stroke-linecap="round"/>
  <path d="M460 704v116" stroke="#E83E73" stroke-width="18" stroke-linecap="round"/>
  <circle cx="704" cy="780" r="72" fill="#FFFFFF" opacity="0.85"/>
  <path d="M674 781c24 30 42 44 42 44s42-34 42-69c0-22-17-39-39-39-14 0-26 7-33 18-7-11-19-18-33-18-22 0-39 17-39 39 0 10 4 18 10 25" stroke="#BE185D" stroke-width="14" stroke-linecap="round" stroke-linejoin="round"/>
</svg>
