<svg xmlns="http://www.w3.org/2000/svg" viewBox="0 0 960 720" role="img" aria-labelledby="title desc">
  <title id="title">Placeholder visual de plan nutricional personalizado</title>
  <desc id="desc">Ilustración propia de un plan de alimentación con checklist y cuenco en tonos VetKathia.</desc>
  <defs>
    <linearGradient id="planBg" x1="0" x2="1" y1="0" y2="1">
      <stop offset="0" stop-color="#FFF9F6"/>
      <stop offset="1" stop-color="#FFF1F5"/>
    </linearGradient>
    <filter id="planShadow" color-interpolation-filters="sRGB" x="-20%" y="-20%" width="140%" height="140%">
      <feDropShadow dx="0" dy="20" stdDeviation="24" flood-color="#3B2724" flood-opacity=".1"/>
    </filter>
  </defs>
  <rect width="960" height="720" rx="56" fill="url(#planBg)"/>
  <path d="M92 596c110-76 206 4 314-50 112-56 142-192 274-184 82 5 126 68 202 34" fill="none" stroke="#F7B9C9" stroke-width="7" stroke-linecap="round"/>
  <g filter="url(#planShadow)">
    <rect x="122" y="102" width="454" height="508" rx="44" fill="#FFFFFF"/>
    <rect x="176" y="160" width="220" height="34" rx="17" fill="#F7B9C9"/>
    <rect x="176" y="236" width="326" height="28" rx="14" fill="#FFF1F5"/>
    <rect x="176" y="306" width="278" height="28" rx="14" fill="#F7B9C9"/>
    <rect x="176" y="376" width="312" height="28" rx="14" fill="#FFF1F5"/>
    <rect x="176" y="446" width="236" height="28" rx="14" fill="#F7B9C9"/>
    <circle cx="514" cy="174" r="32" fill="#E83E73"/>
    <path d="M498 174l12 12 22-26" fill="none" stroke="#FFFFFF" stroke-width="8" stroke-linecap="round" stroke-linejoin="round"/>
  </g>
  <g filter="url(#planShadow)">
    <rect x="608" y="210" width="240" height="296" rx="40" fill="#FFFFFF"/>
    <path d="M660 378h136l-22 72h-92z" fill="#FFF1F5" stroke="#E83E73" stroke-width="8" stroke-linejoin="round"/>
    <ellipse cx="728" cy="378" rx="76" ry="28" fill="#FFFFFF" stroke="#BE185D" stroke-width="8"/>
    <circle cx="706" cy="366" r="13" fill="#E83E73"/>
    <circle cx="736" cy="360" r="13" fill="#F7B9C9"/>
    <circle cx="758" cy="372" r="13" fill="#E83E73"/>
    <rect x="660" y="268" width="128" height="24" rx="12" fill="#F7B9C9"/>
    <rect x="660" y="312" width="94" height="20" rx="10" fill="#FFF1F5"/>
  </g>
  <g>
    <circle cx="610" cy="122" r="44" fill="#BE185D"/>
    <path d="M590 122h40M610 102v40" stroke="#FFFFFF" stroke-width="9" stroke-linecap="round"/>
    <path d="M778 570c-18-36 3-74 42-86 24 36 4 78-42 86z" fill="#FFF1F5" stroke="#BE185D" stroke-width="8" stroke-linejoin="round"/>
    <path d="M790 550c15-9 25-22 32-40" fill="none" stroke="#E83E73" stroke-width="6" stroke-linecap="round"/>
  </g>
</svg>
