<svg xmlns="http://www.w3.org/2000/svg" viewBox="0 0 64 64" role="img" aria-label="VetKathia">
  <rect width="64" height="64" rx="20" fill="#FFF9F6"/>
  <circle cx="32" cy="32" r="22" fill="#BE185D"/>
  <path fill="#fff" d="M32 47.5 19.6 36.1c-5-4.6-3.2-13.1 3.6-14.8 3.4-.9 6.8.5 8.8 3.2 2-2.7 5.4-4.1 8.8-3.2 6.8 1.7 8.6 10.2 3.6 14.8L32 47.5Zm-5.4-21.3c-.3 0-.6 0-.9.1-3.2.8-4.2 4.9-1.8 7.1l8.1 7.5 8.1-7.5c2.4-2.2 1.4-6.3-1.8-7.1-2.2-.6-4.3.6-5.3 2.6-.4.8-1.6.8-2 0-.8-1.7-2.5-2.7-4.4-2.7Z"/>
  <path fill="#FFF1F5" d="M32 34.8c-.7 0-1.2-.5-1.2-1.2v-3.2h-3.2c-.7 0-1.2-.5-1.2-1.2s.5-1.2 1.2-1.2h3.2v-3.2c0-.7.5-1.2 1.2-1.2s1.2.5 1.2 1.2V28h3.2c.7 0 1.2.5 1.2 1.2s-.5 1.2-1.2 1.2h-3.2v3.2c0 .7-.5 1.2-1.2 1.2Z"/>
</svg>
